<?xml version="1.0" encoding="utf-8"?>
<!-- Generator: Adobe Illustrator 16.2.1, SVG Export Plug-In . SVG Version: 6.00 Build 0)  -->
<!DOCTYPE svg PUBLIC "-//W3C//DTD SVG 1.1//EN" "http://www.w3.org/Graphics/SVG/1.1/DTD/svg11.dtd">
<svg version="1.1" id="Layer_1" xmlns="http://www.w3.org/2000/svg" xmlns:xlink="http://www.w3.org/1999/xlink" x="0px" y="0px"
	 width="24px" height="18px" viewBox="0 0 24 18" enable-background="new 0 0 24 18" xml:space="preserve">
<g opacity="0.5">
	<path fill="#FFFFFF" d="M9.195,17.329c-4.593,0-8.328-3.736-8.328-8.329s3.735-8.329,8.328-8.329c3.044,0,5.845,1.659,7.31,4.331
		l-1.566,0.857c-1.15-2.099-3.352-3.403-5.743-3.403C5.588,2.456,2.652,5.393,2.652,9s2.936,6.543,6.543,6.543
		c2.392,0,4.593-1.304,5.743-3.402l1.566,0.857C15.04,15.67,12.239,17.329,9.195,17.329z"/>
	<path fill="#FFFFFF" d="M20.765,6.078C19.494,6.078,18.429,7,18.053,8H12v2h6.053c0.376,1,1.441,1.922,2.712,1.922
		c1.584,0,2.868-1.338,2.868-2.922S22.349,6.078,20.765,6.078z"/>
</g>
<g>
</g>
<g>
</g>
<g>
</g>
<g>
</g>
<g>
</g>
<g>
</g>
<g>
</g>
<g>
</g>
<g>
</g>
<g>
</g>
<g>
</g>
<g>
</g>
<g>
</g>
<g>
</g>
<g>
</g>
</svg>
