<?xml version="1.0" encoding="utf-8"?>
<!-- Generator: Adobe Illustrator 16.2.1, SVG Export Plug-In . SVG Version: 6.00 Build 0)  -->
<!DOCTYPE svg PUBLIC "-//W3C//DTD SVG 1.1//EN" "http://www.w3.org/Graphics/SVG/1.1/DTD/svg11.dtd">
<svg version="1.1" id="Layer_1" xmlns="http://www.w3.org/2000/svg" xmlns:xlink="http://www.w3.org/1999/xlink" x="0px" y="0px"
	 width="408px" height="96px" viewBox="0 0 408 96" enable-background="new 0 0 408 96" xml:space="preserve">
<g>
	<g>
		<g>
			<linearGradient id="SVGID_1_" gradientUnits="userSpaceOnUse" x1="50.811" y1="77.4629" x2="50.811" y2="95.6855">
				<stop  offset="0" style="stop-color:#FFFFFF"/>
				<stop  offset="1" style="stop-color:#FFFFFF;stop-opacity:0.75"/>
			</linearGradient>
			<path fill="url(#SVGID_1_)" d="M62.338,77.463c-1.053,0-2.093,0.285-3.004,0.826c-2.43,1.439-3.449,4.359-2.591,6.939
				c-3.732,1.574-7.65,2.609-11.68,3.084c-0.537-2.734-2.877-5.018-5.708-5.018h-0.079c-3.213,0-5.861,2.904-5.904,6.115
				c-0.043,3.254,2.568,6.275,5.823,6.275h0.081c2.893,0,5.323-2.359,5.809-5.176c4.399-0.494,8.673-1.625,12.734-3.365
				c1.112,1.328,2.771,2.127,4.528,2.127c1.054,0,2.093-0.283,3.004-0.824c1.357-0.803,2.321-2.086,2.711-3.615
				c0.392-1.527,0.165-3.115-0.639-4.471C66.366,78.572,64.417,77.463,62.338,77.463z M65.945,84.291
				c-0.247,0.961-0.853,1.77-1.708,2.275c-0.573,0.34-1.228,0.52-1.89,0.52c-1.309,0-2.536-0.699-3.203-1.824
				c-1.045-1.764-0.459-4.049,1.303-5.092c0.574-0.342,1.228-0.521,1.89-0.521c1.311,0,2.538,0.699,3.205,1.824
				C66.049,82.328,66.191,83.328,65.945,84.291z"/>
			<linearGradient id="SVGID_2_" gradientUnits="userSpaceOnUse" x1="52.7729" y1="0" x2="52.7729" y2="79.52">
				<stop  offset="0" style="stop-color:#FFFFFF"/>
				<stop  offset="1" style="stop-color:#FFFFFF;stop-opacity:0.75"/>
			</linearGradient>
			<path fill="url(#SVGID_2_)" d="M101.88,51.004c-0.965-0.632-2.083-0.966-3.233-0.966c-1.971,0-3.79,0.97-4.892,2.599
				l-19.723-8.536C73.344,25.892,58.324,11.288,39.95,11.288c-4.199,0-8.312,0.762-12.225,2.264l-1.649,0.634l1.303,1.193
				c3.29,3.013,5.511,6.99,6.393,11.298l-21.113-9.136c0.123-0.544,0.17-1.107,0.134-1.68c-0.074-1.143-0.471-2.214-1.135-3.114
				C19.515,5.935,29.514,2.187,39.95,2.187c7.75,0,15.309,2.067,21.936,5.979c-1.194,2.45-0.563,5.491,1.665,7.235
				c1.05,0.823,2.307,1.257,3.638,1.257c1.829,0,3.524-0.825,4.651-2.264c2.007-2.563,1.555-6.281-1.007-8.289
				c-1.049-0.822-2.307-1.256-3.638-1.256c-1.502,0-2.908,0.563-3.989,1.558C56.192,2.217,48.173,0,39.95,0
				C28.907,0,18.328,3.995,10.048,11.25c-0.937-0.593-2.024-0.915-3.146-0.915c-1.699,0-3.315,0.731-4.436,2.005
				c-2.148,2.444-1.909,6.184,0.535,8.334c1.079,0.946,2.462,1.469,3.896,1.469c1.699,0,3.316-0.731,4.436-2.006
				c0.166-0.189,0.312-0.388,0.452-0.592l22.343,9.669c0.043,0.546,0.072,1.098,0.072,1.651c0,11.576-9.417,20.995-20.994,20.995
				c-1.792,0-3.571-0.227-5.291-0.674l-1.709-0.443l0.365,1.726C9.874,68.145,23.912,79.52,39.95,79.52
				c18.448,0,33.514-14.723,34.088-33.033l18.852,8.156c-0.521,2.334,0.404,4.852,2.517,6.236c0.965,0.633,2.083,0.967,3.233,0.967
				c1.999,0,3.847-0.998,4.942-2.668C105.366,56.455,104.604,52.789,101.88,51.004z M9.691,18.695
				c-0.705,0.803-1.724,1.263-2.793,1.263c-0.902,0-1.774-0.328-2.451-0.925c-1.54-1.355-1.691-3.709-0.336-5.249
				c0.705-0.802,1.722-1.262,2.792-1.262c0.903,0,1.774,0.328,2.453,0.926c0.746,0.655,1.19,1.562,1.254,2.553
				c0.015,0.217,0.002,0.432-0.021,0.645l-3.254-1.409c-0.556-0.241-1.198,0.016-1.438,0.57c-0.241,0.554,0.014,1.198,0.57,1.438
				l3.254,1.408C9.71,18.667,9.703,18.681,9.691,18.695z M30.125,15.022c3.17-1.028,6.468-1.547,9.825-1.547
				c16.84,0,30.667,13.107,31.839,29.655L36.167,27.715C35.514,22.979,33.404,18.529,30.125,15.022z M39.95,77.334
				c-14.435,0-27.141-9.85-30.84-23.648c1.347,0.24,2.718,0.361,4.097,0.361c12.782,0,23.181-10.399,23.181-23.181
				c0-0.228-0.009-0.454-0.017-0.682L71.875,45.55C71.796,63.088,57.506,77.334,39.95,77.334z M101.753,57.979
				c-0.689,1.053-1.854,1.682-3.114,1.682c-0.722,0-1.427-0.211-2.034-0.611c-1.205-0.789-1.784-2.164-1.642-3.508l3.245,1.404
				c0.142,0.061,0.289,0.09,0.434,0.09c0.423,0,0.826-0.246,1.004-0.658c0.24-0.557-0.015-1.199-0.569-1.439l-3.263-1.41
				c0.702-0.824,1.731-1.305,2.833-1.305c0.723,0,1.426,0.213,2.034,0.609C102.396,53.955,102.876,56.266,101.753,57.979z"/>
		</g>
		<linearGradient id="SVGID_3_" gradientUnits="userSpaceOnUse" x1="271.1562" y1="9.3438" x2="271.1562" y2="86.0356">
			<stop  offset="0" style="stop-color:#FFFFFF"/>
			<stop  offset="1" style="stop-color:#FFFFFF;stop-opacity:0.75"/>
		</linearGradient>
		<path fill="url(#SVGID_3_)" d="M246.291,10.771c0-0.767,0.65-1.427,1.418-1.427h23.559c13.587,0,24.755,11.07,24.755,24.541
			c0,13.693-11.168,24.87-24.646,24.87h-19.938v25.854c0,0.768-0.661,1.428-1.749,1.428h-1.98c-0.768,0-1.418-0.66-1.418-1.428
			V10.771z M271.046,53.715c10.74,0,19.832-8.875,19.832-19.937c0-10.742-9.092-19.287-19.939-19.287h-19.5v39.224H271.046z"/>
		<linearGradient id="SVGID_4_" gradientUnits="userSpaceOnUse" x1="325.6035" y1="9.3438" x2="325.6035" y2="86.0376">
			<stop  offset="0" style="stop-color:#FFFFFF"/>
			<stop  offset="1" style="stop-color:#FFFFFF;stop-opacity:0.75"/>
		</linearGradient>
		<path fill="url(#SVGID_4_)" d="M304.845,10.771c0-0.767,0.659-1.427,1.418-1.427h2.419c0.65,0,1.31,0.66,1.31,1.427v70.663h34.954
			c1.31,0,1.417,0.66,1.417,1.428v1.971c0,0.768-0.65,1.205-1.417,1.205h-38.683c-0.759,0-1.418-0.66-1.418-1.428V10.771z"/>
		<g>
			<linearGradient id="SVGID_5_" gradientUnits="userSpaceOnUse" x1="380.5898" y1="9.3438" x2="380.5898" y2="86.0376">
				<stop  offset="0" style="stop-color:#FFFFFF"/>
				<stop  offset="1" style="stop-color:#FFFFFF;stop-opacity:0.75"/>
			</linearGradient>
			<path fill="url(#SVGID_5_)" d="M376.601,51.852h5.854c10.518,0,19.385-8.216,19.385-19.064c0-10.401-8.867-18.404-19.501-18.404
				h-23.113v70.226c0,0.768-0.661,1.428-1.749,1.428h-1.979c-0.768,0-1.419-0.66-1.419-1.428V10.771
				c0-0.767,0.543-1.427,1.419-1.427h27.172c13.373,0,24.436,10.08,24.436,23.443c0,11.073-7.673,19.939-18.074,22.9l15.996,28.379
				c0.544,0.873,0.319,1.971-0.767,1.971h-3.4c-0.767,0-1.203-0.332-1.535-0.99l-15.889-28.699c-1.417,0.107-2.63,0.107-4.047,0.107
				c0,0-2.081,0-2.852,0c-0.769,0-1.393-0.652-1.393-1.457v-1.688C375.144,52.504,375.797,51.852,376.601,51.852z"/>
		</g>
		<linearGradient id="SVGID_6_" gradientUnits="userSpaceOnUse" x1="150.2378" y1="9.3438" x2="150.2378" y2="86.0376">
			<stop  offset="0" style="stop-color:#FFFFFF"/>
			<stop  offset="1" style="stop-color:#FFFFFF;stop-opacity:0.75"/>
		</linearGradient>
		<path fill="url(#SVGID_6_)" d="M174.874,84.172L145.182,46.28l28.487-35.072c0.66-0.66,0.554-1.864-0.66-1.864h-3.059
			c-0.991,0-1.321,0-2.195,0.767L130.5,56.137V10.986c0-0.982-0.651-1.642-1.641-1.642h-1.972c-0.981,0-1.641,0.66-1.641,1.642
			v73.624c0,0.883,0.544,1.428,1.418,1.428h2.195c0.874,0,1.641-0.332,1.641-1.428V64.354l11.288-13.896l26.189,34.482
			c0.875,0.873,1.418,1.098,2.409,1.098h3.506C175.311,86.037,175.534,84.727,174.874,84.172z"/>
		<g>
			<linearGradient id="SVGID_7_" gradientUnits="userSpaceOnUse" x1="210.1016" y1="9.3438" x2="210.1016" y2="86.0356">
				<stop  offset="0" style="stop-color:#FFFFFF"/>
				<stop  offset="1" style="stop-color:#FFFFFF;stop-opacity:0.75"/>
			</linearGradient>
			<path fill="url(#SVGID_7_)" d="M184.447,83.453c0-0.619,0.296-1.705,0.661-2.422l14.049-24.961L186.285,14.7
				c-0.213-0.776-0.386-1.964-0.386-2.653v-1.247c0-0.804,0.653-1.457,1.458-1.457h43.2c0.807,0,1.458,0.653,1.458,1.457v1.763
				c0,0.804-0.651,1.458-1.458,1.458h-38.956l12.888,42.049l-13.773,25.324h43.582c0.805,0,1.458,0.652,1.458,1.457v1.725
				c0,0.805-0.653,1.459-1.458,1.459h-48.393c-0.805,0-1.458-0.654-1.458-1.459C184.447,84.576,184.447,84.072,184.447,83.453z"/>
		</g>
		<linearGradient id="SVGID_8_" gradientUnits="userSpaceOnUse" x1="217.3379" y1="51.7422" x2="217.3379" y2="60.1406">
			<stop  offset="0" style="stop-color:#FFFFFF"/>
			<stop  offset="1" style="stop-color:#FFFFFF;stop-opacity:0.75"/>
		</linearGradient>
		<path fill="url(#SVGID_8_)" d="M221.536,55.947c-0.004,2.318-1.887,4.195-4.205,4.193c-2.318-0.004-4.195-1.887-4.192-4.205
			c0-2.318,1.886-4.197,4.204-4.193S221.538,53.629,221.536,55.947z"/>
	</g>
</g>
<g>
</g>
<g>
</g>
<g>
</g>
<g>
</g>
<g>
</g>
<g>
</g>
<g>
</g>
<g>
</g>
<g>
</g>
<g>
</g>
<g>
</g>
<g>
</g>
<g>
</g>
<g>
</g>
<g>
</g>
</svg>
